# xmcd
#
# Track frame offsets: 
#        150
#        15023
#        35651
#        52249
#        73539
#        90732
#        108757
#        129358
#        146864
#        173044
#        190021
#
# Disc length: 2800 seconds
#
# Revision: 1
# Processed by: cddbd v1.5.2PL0 Copyright (c) Steve Scherf et al.
# Submitted via: ExactAudioCopy v0.99pb3
#
DISCID=8e0aee0b
DTITLE=Sena Ehrhardt - Live my life
DYEAR=2014
DGENRE=Blues
TTITLE0=The stakes have gone up
TTITLE1=Things you shouldn't need to know
TTITLE2=Slow down
TTITLE3=Help me through the day
TTITLE4=Live my life
TTITLE5=Chilled to the bone
TTITLE6=Too late to ask (with Cole Allen)
TTITLE7=Everybody is you
TTITLE8=If trouble was money
TTITLE9=Did you ever love me at all
TTITLE10=Come closer
EXTD=YEAR: 2014
EXTT0=
EXTT1=
EXTT2=
EXTT3=
EXTT4=
EXTT5=
EXTT6=
EXTT7=
EXTT8=
EXTT9=
EXTT10=
PLAYORDER=
